<svg xmlns="http://www.w3.org/2000/svg" viewBox="0 0 880 300" width="880" height="300" role="img" aria-label="skill-matcher">
  <rect width="880" height="300" fill="#FFFFFF"/>
  <g opacity="0.5">
    <line x1="0" y1="0" x2="880" y2="0" stroke="#F2F4F7" stroke-width="1"/><line x1="0" y1="30" x2="880" y2="30" stroke="#F2F4F7" stroke-width="1"/><line x1="0" y1="60" x2="880" y2="60" stroke="#F2F4F7" stroke-width="1"/><line x1="0" y1="90" x2="880" y2="90" stroke="#F2F4F7" stroke-width="1"/><line x1="0" y1="120" x2="880" y2="120" stroke="#F2F4F7" stroke-width="1"/><line x1="0" y1="150" x2="880" y2="150" stroke="#F2F4F7" stroke-width="1"/><line x1="0" y1="180" x2="880" y2="180" stroke="#F2F4F7" stroke-width="1"/><line x1="0" y1="210" x2="880" y2="210" stroke="#F2F4F7" stroke-width="1"/><line x1="0" y1="240" x2="880" y2="240" stroke="#F2F4F7" stroke-width="1"/><line x1="0" y1="270" x2="880" y2="270" stroke="#F2F4F7" stroke-width="1"/>
  </g>
  <text x="60" y="72" font-family="ui-monospace,SFMono-Regular,Menlo,monospace" font-size="38" font-weight="700" fill="#1F2328">skill-matcher</text>
  <text x="60" y="102" font-family="ui-monospace,SFMono-Regular,Menlo,monospace" font-size="14" fill="#59636E">you installed 188 skills. you use six.</text>
  <text x="60" y="132" font-family="ui-monospace,SFMono-Regular,Menlo,monospace" font-size="12" fill="#FF7A18">&gt; the sidebar collapse feels janky</text>
  <rect x="60" y="150" width="58" height="16" rx="8" fill="#C9D1D9" opacity="0.32"/><rect x="136" y="150" width="58" height="16" rx="8" fill="#C9D1D9" opacity="0.55"/><rect x="212" y="150" width="58" height="16" rx="8" fill="#C9D1D9" opacity="0.55"/><rect x="288" y="150" width="58" height="16" rx="8" fill="#C9D1D9" opacity="0.32"/><rect x="364" y="150" width="58" height="16" rx="8" fill="#C9D1D9" opacity="0.55"/><rect x="440" y="150" width="58" height="16" rx="8" fill="#C9D1D9" opacity="0.55"/><rect x="516" y="150" width="58" height="16" rx="8" fill="#C9D1D9" opacity="0.32"/><rect x="592" y="150" width="58" height="16" rx="8" fill="#C9D1D9" opacity="0.55"/><rect x="668" y="150" width="58" height="16" rx="8" fill="#C9D1D9" opacity="0.55"/><rect x="744" y="150" width="58" height="16" rx="8" fill="#C9D1D9" opacity="0.32"/><rect x="60" y="180" width="58" height="16" rx="8" fill="#C9D1D9" opacity="0.55"/><rect x="136" y="180" width="58" height="16" rx="8" fill="#C9D1D9" opacity="0.55"/><rect x="212" y="180" width="58" height="16" rx="8" fill="#C9D1D9" opacity="0.32"/><rect x="288" y="180" width="58" height="16" rx="8" fill="#C9D1D9" opacity="0.55"/><rect x="364" y="180" width="58" height="16" rx="8" fill="#FF7A18" opacity="1"/><rect x="360" y="176" width="66" height="24" rx="12" fill="none" stroke="#FF7A18" stroke-width="1.5" opacity="0.5"/><rect x="440" y="180" width="58" height="16" rx="8" fill="#C9D1D9" opacity="0.32"/><rect x="516" y="180" width="58" height="16" rx="8" fill="#C9D1D9" opacity="0.55"/><rect x="592" y="180" width="58" height="16" rx="8" fill="#C9D1D9" opacity="0.55"/><rect x="668" y="180" width="58" height="16" rx="8" fill="#C9D1D9" opacity="0.32"/><rect x="744" y="180" width="58" height="16" rx="8" fill="#C9D1D9" opacity="0.55"/><rect x="60" y="210" width="58" height="16" rx="8" fill="#C9D1D9" opacity="0.55"/><rect x="136" y="210" width="58" height="16" rx="8" fill="#C9D1D9" opacity="0.32"/><rect x="212" y="210" width="58" height="16" rx="8" fill="#C9D1D9" opacity="0.55"/><rect x="288" y="210" width="58" height="16" rx="8" fill="#C9D1D9" opacity="0.55"/><rect x="364" y="210" width="58" height="16" rx="8" fill="#C9D1D9" opacity="0.32"/><rect x="440" y="210" width="58" height="16" rx="8" fill="#C9D1D9" opacity="0.55"/><rect x="516" y="210" width="58" height="16" rx="8" fill="#C9D1D9" opacity="0.55"/><rect x="592" y="210" width="58" height="16" rx="8" fill="#C9D1D9" opacity="0.32"/><rect x="668" y="210" width="58" height="16" rx="8" fill="#C9D1D9" opacity="0.55"/><rect x="744" y="210" width="58" height="16" rx="8" fill="#C9D1D9" opacity="0.55"/><rect x="60" y="240" width="58" height="16" rx="8" fill="#C9D1D9" opacity="0.32"/><rect x="136" y="240" width="58" height="16" rx="8" fill="#C9D1D9" opacity="0.55"/><rect x="212" y="240" width="58" height="16" rx="8" fill="#C9D1D9" opacity="0.55"/><rect x="288" y="240" width="58" height="16" rx="8" fill="#C9D1D9" opacity="0.32"/><rect x="364" y="240" width="58" height="16" rx="8" fill="#C9D1D9" opacity="0.55"/><rect x="440" y="240" width="58" height="16" rx="8" fill="#C9D1D9" opacity="0.55"/><rect x="516" y="240" width="58" height="16" rx="8" fill="#C9D1D9" opacity="0.32"/><rect x="592" y="240" width="58" height="16" rx="8" fill="#C9D1D9" opacity="0.55"/><rect x="668" y="240" width="58" height="16" rx="8" fill="#C9D1D9" opacity="0.55"/><rect x="744" y="240" width="58" height="16" rx="8" fill="#C9D1D9" opacity="0.32"/>
  <text x="393" y="192" font-family="ui-monospace,SFMono-Regular,Menlo,monospace" font-size="10" fill="#FFFFFF" text-anchor="middle" font-weight="700">match</text>
  <text x="60" y="290" font-family="ui-monospace,SFMono-Regular,Menlo,monospace" font-size="11" fill="#59636E">no LLM · no network · no tokens · 28 ms of C++</text>
</svg>